<svg xmlns="http://www.w3.org/2000/svg" width="187.445" height="137.026" viewBox="0 0 49.595 36.255"><path d="M98.49 94.383q.027.049.027.117 0 .104-.076.18-.069.075-.186.075-.076 0-.138-.034-.055-.034-.09-.103-.13-.255-.234-.634-.096-.386-.172-.855-.069-.468-.117-1.006-.041-.544-.069-1.123-.517.07-1.164.152-.641.083-1.468.193-.579.082-1.178.144-1.475 1.606-3.108 2.44-1.626.826-3.266.826-.73 0-1.267-.144-.53-.138-.882-.31-.345-.18-.517-.331-.18-.152-.193-.165-.069-.07-.069-.18 0-.11.076-.186.076-.075.18-.075.116 0 .192.082.014.014.165.145.152.124.448.269.303.144.765.262.462.117 1.096.117.868 0 1.66-.235.793-.234 1.495-.606.71-.379 1.316-.861.614-.483 1.11-.979-.49.042-.972.062-.482.021-.95.021-.924 0-1.758-.103-.833-.104-1.467-.345-.634-.248-1.013-.654-.372-.407-.372-1.013 0-.276.11-.551.117-.276.276-.497.158-.227.33-.365.173-.144.297-.144.096 0 .179.068.082.07.082.187 0 .062-.027.124-.028.055-.083.09-.014.013-.117.096-.103.082-.22.227-.118.138-.214.338-.096.192-.096.42 0 .393.268.696.276.296.793.503.523.2 1.281.303.758.103 1.73.103.558 0 1.178-.034.62-.035 1.309-.104.33-.365.586-.689.255-.323.434-.578.296-.42.62-.896.324-.475.64-.965.324-.489.628-.964l.578-.903q.27-.427.483-.772l.351-.578q.041-.186.124-.338.083-.158.269-.158.103 0 .2.09.096.082.096.213 0 .096-.069.206-.069.11-.13.186-.021.131-.07.559-.04.427-.09 1.047-.04.613-.075 1.357-.027.737-.027 1.495v.558q0 .276.013.559 1.034-.131 1.51-.18.475-.055.502-.055.09 0 .172.076.09.069.09.186 0 .097-.069.172-.062.07-.165.083l-.29.035-.406.048q-.241.027-.565.069-.324.034-.758.09.02.564.062 1.088.048.517.11.964.07.448.159.807.09.358.206.585zm-3.756-3.555q.813-.11 1.475-.193.668-.09 1.206-.158l-.014-.593v-.6q0-.97.034-1.853.035-.889.097-1.543l-.614.964q-.33.524-.689 1.075-.358.545-.723 1.082t-.696 1.006q-.165.234-.338.455-.172.22-.344.434.151-.014.296-.035l.31-.041zm9.757 1.681q-.042.076-.145.276-.096.2-.269.455-.165.248-.4.516-.234.269-.537.496-.303.22-.682.366-.372.144-.813.144-.393 0-.696-.144-.303-.138-.517-.393-.213-.262-.323-.613-.11-.352-.11-.779 0-.413.116-.772.118-.365.317-.634.207-.268.476-.42.269-.158.572-.158.227 0 .413.082.186.076.31.207.131.131.2.29.076.158.076.316 0 .152-.041.283-.035.13-.097.234-.055.097-.13.159-.077.055-.152.055-.118 0-.193-.076-.07-.076-.07-.186 0-.055.021-.097l.055-.082q.035-.048.056-.11.027-.07.027-.173 0-.144-.138-.262-.13-.117-.337-.117-.193 0-.372.117-.173.118-.303.317-.131.193-.214.462-.076.262-.076.558 0 .283.069.538.069.255.207.454.138.193.344.31.214.118.503.118.372 0 .69-.131.316-.138.578-.345.262-.207.462-.448.2-.248.337-.461.145-.22.22-.38.083-.165.097-.206.028-.069.09-.103.069-.042.145-.042.117 0 .186.083.075.083.075.186 0 .041-.027.11zm2.025 2.584q1.296-1.688 1.799-2.804.034-.076.09-.11.061-.042.137-.042.117 0 .193.083.076.076.076.179 0 .048-.02.096-.304.69-.862 1.537t-1.413 1.915q0 .434.007.869.007.434.007.95 0 .517-.027 1.02-.02.51-.083.965-.062.461-.172.847-.103.393-.276.676-.165.289-.406.447-.234.166-.558.166-.462 0-.71-.352-.248-.351-.248-.999 0-.344.062-.75.069-.4.193-.828.124-.427.296-.868.18-.434.393-.847.213-.414.462-.793.254-.379.537-.689.007-.482.007-.957.007-.476.02-.875-.206.261-.495.413-.283.152-.565.152-.242 0-.441-.09-.193-.096-.331-.262-.138-.172-.214-.4-.076-.227-.076-.496 0-.537.18-.944.186-.413.468-.689.283-.275.62-.413.345-.138.662-.138.213 0 .392.055.18.056.304.124.13.07.2.131.068.062.075.07.076.082.076.185 0 .104-.076.186-.076.076-.179.076-.096 0-.186-.076l-.076-.055q-.041-.041-.117-.083-.069-.04-.172-.068-.097-.028-.234-.028-.207 0-.455.096-.248.09-.462.29-.213.2-.358.517-.145.31-.145.75 0 .331.145.538.145.2.448.2.144 0 .303-.083.165-.082.317-.255.151-.172.262-.434.117-.262.165-.62.014-.096.09-.158.075-.07.179-.07.117 0 .179.083.069.083.069.186l-.007.214q-.007.2-.014.537-.007.338-.02.786-.008.44-.014.937zm-.523 1.509q-.324.448-.586.971-.262.531-.448 1.068-.186.538-.29 1.04-.096.51-.096.91 0 .255.042.407.048.152.11.234.069.083.145.11.082.028.151.028.214 0 .372-.172.159-.172.27-.462.11-.282.178-.654.07-.373.104-.772.034-.393.048-.786.014-.392.014-.723v-.593q0-.296-.014-.606z" aria-label="Acg" style="font-size:14.1111px;font-family:Sacramento;-inkscape-font-specification:Sacramento;baseline-shift:baseline;fill:#e6e6e6;stroke-width:.264583" transform="matrix(2 0 0 2 -168.027 -167.519)"/><path d="M98.18 93.998q.027.048.027.117 0 .104-.076.18-.069.075-.186.075-.075 0-.137-.034-.056-.035-.09-.104-.13-.254-.234-.633-.097-.386-.173-.855-.068-.468-.117-1.006-.041-.544-.069-1.123-.516.069-1.164.152-.64.082-1.468.193-.578.082-1.178.144-1.474 1.606-3.107 2.44-1.626.826-3.266.826-.73 0-1.268-.144-.53-.138-.882-.31-.345-.18-.517-.331-.179-.152-.193-.166-.069-.068-.069-.179 0-.11.076-.186t.18-.076q.116 0 .192.083.014.014.166.145.151.124.447.269.304.144.765.261.462.117 1.096.117.868 0 1.66-.234.793-.234 1.496-.606.71-.38 1.316-.861.613-.483 1.109-.979-.49.042-.972.062-.482.02-.95.02-.924 0-1.757-.102-.834-.104-1.468-.345-.634-.248-1.013-.655-.372-.406-.372-1.012 0-.276.11-.552.117-.275.276-.496.158-.227.33-.365.173-.145.297-.145.096 0 .179.07.083.068.083.185 0 .062-.028.124-.027.055-.083.09-.013.014-.117.096-.103.083-.22.228-.117.138-.214.337-.096.193-.096.42 0 .393.268.697.276.296.793.503.524.2 1.281.303.758.103 1.73.103.558 0 1.178-.034.62-.035 1.31-.104.33-.365.585-.689.255-.324.434-.578.296-.42.62-.896.324-.476.64-.965.325-.489.628-.964l.579-.903q.268-.427.482-.772.214-.351.351-.579.042-.186.124-.337.083-.159.27-.159.102 0 .199.09.096.083.096.214 0 .096-.069.206-.068.11-.13.186-.021.131-.07.558-.04.428-.089 1.048-.041.613-.076 1.357-.027.737-.027 1.495v.558q0 .276.014.558 1.033-.13 1.508-.179.476-.055.503-.055.09 0 .173.076.09.069.09.186 0 .096-.07.172-.062.07-.165.083l-.29.034q-.165.021-.406.049-.241.027-.565.068-.324.035-.758.09.02.565.062 1.089.048.516.11.964.07.448.159.806.09.359.207.586zm-3.756-3.555q.814-.11 1.475-.193.668-.09 1.206-.159l-.014-.592v-.6q0-.971.034-1.853.035-.889.097-1.543l-.613.964q-.331.524-.69 1.075-.358.544-.723 1.082-.365.537-.696 1.006-.165.234-.337.455-.173.22-.345.434.152-.014.296-.035l.31-.041zm9.757 1.681-.145.276q-.096.2-.268.454-.166.248-.4.517t-.537.496q-.304.22-.683.365-.372.145-.813.145-.392 0-.696-.145-.303-.137-.516-.392-.214-.262-.324-.614-.11-.35-.11-.778 0-.414.117-.772.117-.365.317-.634.206-.268.475-.42.269-.158.572-.158.227 0 .413.082.186.076.31.207.131.13.2.29.076.158.076.316 0 .152-.041.283-.035.13-.097.234-.055.096-.13.158-.076.056-.152.056-.117 0-.193-.076-.07-.076-.07-.186 0-.055.022-.097l.055-.082q.034-.049.055-.11.027-.07.027-.173 0-.145-.137-.262-.131-.117-.338-.117-.193 0-.372.117-.172.117-.303.317-.131.193-.214.462-.076.262-.076.558 0 .282.07.537.068.255.206.455.138.193.344.31.214.117.503.117.373 0 .69-.13.316-.138.578-.345.262-.207.462-.448.2-.248.338-.462.144-.22.22-.379.083-.165.097-.206.027-.07.09-.104.068-.04.144-.04.117 0 .186.082.076.082.076.186 0 .041-.028.11zm2.026 2.584q1.295-1.688 1.798-2.804.034-.076.09-.11.062-.042.137-.042.118 0 .193.083.076.075.076.179 0 .048-.02.096-.304.69-.862 1.537t-1.412 1.915q0 .434.007.868t.007.951q0 .517-.028 1.02-.02.51-.083.965-.062.461-.172.847-.103.393-.275.675-.166.29-.407.448-.234.166-.558.166-.462 0-.71-.352-.248-.351-.248-.999 0-.344.062-.75.07-.4.193-.828.124-.427.296-.868.18-.434.393-.847.214-.414.462-.793.255-.379.537-.689.007-.482.007-.958.007-.475.02-.875-.206.262-.495.414-.283.151-.565.151-.241 0-.441-.09-.193-.096-.33-.261-.139-.172-.214-.4-.076-.227-.076-.496 0-.537.179-.944.186-.413.468-.689.283-.275.62-.413.345-.138.662-.138.214 0 .393.055.179.055.303.124.13.07.2.131.069.062.075.07.076.082.076.185t-.076.186q-.075.076-.179.076-.096 0-.186-.076l-.075-.055q-.042-.041-.118-.083-.069-.041-.172-.069-.096-.027-.234-.027-.207 0-.455.096-.248.09-.462.29-.213.2-.358.516-.145.31-.145.752 0 .33.145.537.145.2.448.2.145 0 .303-.083.166-.083.317-.255.152-.172.262-.434.117-.262.165-.62.014-.097.09-.159.076-.068.18-.068.116 0 .178.082.07.083.07.186l-.008.214q-.007.2-.014.537-.007.338-.02.786l-.014.937zm-.524 1.509q-.324.448-.586.971-.261.53-.447 1.068-.187.538-.29 1.04-.096.51-.096.91 0 .255.04.407.05.151.111.234.07.083.145.11.083.028.151.028.214 0 .373-.172.158-.173.268-.462.11-.283.18-.655.068-.372.103-.771.034-.393.048-.786.014-.393.014-.723v-.593q0-.296-.014-.606z" aria-label="Acg" style="font-size:14.1111px;font-family:Sacramento;-inkscape-font-specification:Sacramento;baseline-shift:baseline;stroke-width:.264583" transform="matrix(2 0 0 2 -168.027 -167.519)"/></svg>